<?xml version="1.0" encoding="utf-8"?>
<!-- Generator: Adobe Illustrator 19.0.0, SVG Export Plug-In . SVG Version: 6.00 Build 0)  -->
<svg version="1.1" id="Layer_1" xmlns="http://www.w3.org/2000/svg" xmlns:xlink="http://www.w3.org/1999/xlink" x="0px" y="0px"
	 viewBox="0 0 90 103.9" style="enable-background:new 0 0 90 103.9;" xml:space="preserve">
<style type="text/css">
	.st0{opacity:0.6;fill:#009741;}
	.st1{opacity:0.6;fill:#DEDC0A;}
	.st2{opacity:0.6;fill:#F39208;}
	.st3{opacity:0.6;fill:#E72174;}
	.st4{opacity:0.6;fill:#253887;}
	.st5{opacity:0.6;fill:#3BA9E0;}
</style>
<g id="XMLID_1_">
	<polygon id="XMLID_8_" class="st0" points="45,34.6 60,43.3 60,26 30,8.7 0,26 0,60.6 30,77.9 60,60.6 45,69.3 30,60.6 30,43.3 	
		"/>
	<polygon id="XMLID_6_" class="st1" points="30,60.6 30,43.3 45,34.6 30,26 0,43.3 0,77.9 30,95.3 60,77.9 60,60.6 45,69.3 	"/>
	<polygon id="XMLID_5_" class="st2" points="45,34.6 60,43.3 60,60.6 45,69.3 30,60.6 30,43.3 45,34.6 15,52 15,86.6 45,103.9 
		75,86.6 75,52 	"/>
	<polygon id="XMLID_4_" class="st3" points="60,26 45,34.6 60,43.3 60,60.6 45,69.3 30,60.6 30,77.9 60,95.3 90,77.9 90,43.3 	"/>
	<polygon id="XMLID_16_" class="st4" points="60,8.7 30,26 30,43.3 45,34.6 60,43.3 60,60.6 45,69.3 30,60.6 60,77.9 90,60.6 90,26 
			"/>
	<polygon id="XMLID_17_" class="st5" points="45,0 15,17.3 15,52 30,60.6 30,43.3 45,34.6 60,43.3 60,60.6 75,52 75,17.3 	"/>
</g>
</svg>
