<svg width="1080" height="760" xmlns="http://www.w3.org/2000/svg" xmlns:xlink="http://www.w3.org/1999/xlink">
    <defs>
        <linearGradient id="a" gradientUnits="userSpaceOnUse" x1="541.5" y1="369" x2="541.5" y2="510">
            <stop offset="0" stop-color="#ff9e02"/>
            <stop offset="1" stop-color="#fa7118"/>
        </linearGradient>
    </defs>
    <path d="M0 760h1080V0H0z" fill="#37474f"/>
    <text id="b" transform="translate(244 112)" fill="#f5f8fa" y="124" font-size="130" font-family="HelveticaNeue, Helvetica Neue" text-decoration="none" x="1.03">Picturama</text>
    <path d="M600 439.5L547 510v-42.3h-64v-56.4h64V369z" fill="url(#a)"/>
    <path d="M181 532a6 6 0 0 0-6 6v28a6 6 0 0 0 6 6h158a6 6 0 0 0 6-6v-28a6 6 0 0 0-6-6zm559 0a6 6 0 0 0-6 6v28a6 6 0 0 0 6 6h158a6 6 0 0 0 6-6v-28a6 6 0 0 0-6-6z" fill="#7d8a90"/>
</svg>
