<svg width="232" height="44" xmlns="http://www.w3.org/2000/svg" xmlns:xlink="http://www.w3.org/1999/xlink"><defs><linearGradient id="a" gradientUnits="userSpaceOnUse" x1="117.15" y1="43.98" x2="117.15" y2="-.02"><stop offset="0" stop-color="#1d2529"/><stop offset="1" stop-color="#37474f"/></linearGradient></defs><path d="M0 44h232V0H0z" fill="url(#a)"/><path d="M47.12 3h.23a6.85 6.85 0 0 1-1.73 5.16c-1.02 1.22-2.43 2.4-4.7 2.21a6.65 6.65 0 0 1 1.75-5A7.59 7.59 0 0 1 47.12 3zM54 26.49v.06a18.64 18.64 0 0 1-2.66 5.14c-1.01 1.4-2.26 3.28-4.48 3.28-1.92 0-3.2-1.24-5.17-1.27-2.08-.04-3.22 1.03-5.13 1.3h-.65c-1.4-.2-2.52-1.31-3.34-2.3a20.22 20.22 0 0 1-4.65-11.64v-1.43c.15-3.49 1.84-6.32 4.1-7.7a6.91 6.91 0 0 1 4.64-1.07c.78.12 1.57.39 2.27.65.66.26 1.5.7 2.27.68.54-.01 1.06-.29 1.6-.48 1.57-.57 3.1-1.22 5.13-.92 2.44.37 4.16 1.46 5.23 3.12-2.06 1.31-3.68 3.3-3.4 6.66.24 3.07 2.02 4.86 4.25 5.92z" fill="#fff"/><defs><text id="b" transform="translate(68.5 9)"><tspan x="1.29" y="23" font-family="Helvetica, Helvetica" font-size="30" fill="#f5f8fa">D</tspan> <tspan x="22.96" y="23" font-family="Helvetica, Helvetica" font-size="30" fill="#f5f8fa">o</tspan> <tspan x="39.64" y="23" font-family="Helvetica, Helvetica" font-size="30" fill="#f5f8fa">w</tspan> <tspan x="61.31" y="23" font-family="Helvetica, Helvetica" font-size="30" fill="#f5f8fa">n</tspan> <tspan x="77.99" y="23" font-family="Helvetica, Helvetica" font-size="30" fill="#f5f8fa">l</tspan> <tspan x="84.66" y="23" font-family="Helvetica, Helvetica" font-size="30" fill="#f5f8fa">o</tspan> <tspan x="101.34" y="23" font-family="Helvetica, Helvetica" font-size="30" fill="#f5f8fa">a</tspan> <tspan x="118.02" y="23" font-family="Helvetica, Helvetica" font-size="30" fill="#f5f8fa">d</tspan></text></defs><use xlink:href="#b"/></svg>