<svg xmlns="http://www.w3.org/2000/svg" viewBox="0 0 800 600" width="800" height="600">
  <rect x="0" y="0" width="800" height="600" fill="white"/>
  <path d="M4.5,0 l0,600 M9.5,0 l0,600 M14.5,0 l0,600 M19.5,0 l0,600 M29.5,0 l0,600 M34.5,0 l0,600 M39.5,0 l0,600 M44.5,0 l0,600 M54.5,0 l0,600 M59.5,0 l0,600 M64.5,0 l0,600 M69.5,0 l0,600 M79.5,0 l0,600 M84.5,0 l0,600 M89.5,0 l0,600 M94.5,0 l0,600 M104.5,0 l0,600 M109.5,0 l0,600 M114.5,0 l0,600 M119.5,0 l0,600 M129.5,0 l0,600 M134.5,0 l0,600 M139.5,0 l0,600 M144.5,0 l0,600 M154.5,0 l0,600 M159.5,0 l0,600 M164.5,0 l0,600 M169.5,0 l0,600 M179.5,0 l0,600 M184.5,0 l0,600 M189.5,0 l0,600 M194.5,0 l0,600 M204.5,0 l0,600 M209.5,0 l0,600 M214.5,0 l0,600 M219.5,0 l0,600 M229.5,0 l0,600 M234.5,0 l0,600 M239.5,0 l0,600 M244.5,0 l0,600 M254.5,0 l0,600 M259.5,0 l0,600 M264.5,0 l0,600 M269.5,0 l0,600 M279.5,0 l0,600 M284.5,0 l0,600 M289.5,0 l0,600 M294.5,0 l0,600 M304.5,0 l0,600 M309.5,0 l0,600 M314.5,0 l0,600 M319.5,0 l0,600 M329.5,0 l0,600 M334.5,0 l0,600 M339.5,0 l0,600 M344.5,0 l0,600 M354.5,0 l0,600 M359.5,0 l0,600 M364.5,0 l0,600 M369.5,0 l0,600 M379.5,0 l0,600 M384.5,0 l0,600 M389.5,0 l0,600 M394.5,0 l0,600 M404.5,0 l0,600 M409.5,0 l0,600 M414.5,0 l0,600 M419.5,0 l0,600 M429.5,0 l0,600 M434.5,0 l0,600 M439.5,0 l0,600 M444.5,0 l0,600 M454.5,0 l0,600 M459.5,0 l0,600 M464.5,0 l0,600 M469.5,0 l0,600 M479.5,0 l0,600 M484.5,0 l0,600 M489.5,0 l0,600 M494.5,0 l0,600 M504.5,0 l0,600 M509.5,0 l0,600 M514.5,0 l0,600 M519.5,0 l0,600 M529.5,0 l0,600 M534.5,0 l0,600 M539.5,0 l0,600 M544.5,0 l0,600 M554.5,0 l0,600 M559.5,0 l0,600 M564.5,0 l0,600 M569.5,0 l0,600 M579.5,0 l0,600 M584.5,0 l0,600 M589.5,0 l0,600 M594.5,0 l0,600 M604.5,0 l0,600 M609.5,0 l0,600 M614.5,0 l0,600 M619.5,0 l0,600 M629.5,0 l0,600 M634.5,0 l0,600 M639.5,0 l0,600 M644.5,0 l0,600 M654.5,0 l0,600 M659.5,0 l0,600 M664.5,0 l0,600 M669.5,0 l0,600 M679.5,0 l0,600 M684.5,0 l0,600 M689.5,0 l0,600 M694.5,0 l0,600 M704.5,0 l0,600 M709.5,0 l0,600 M714.5,0 l0,600 M719.5,0 l0,600 M729.5,0 l0,600 M734.5,0 l0,600 M739.5,0 l0,600 M744.5,0 l0,600 M754.5,0 l0,600 M759.5,0 l0,600 M764.5,0 l0,600 M769.5,0 l0,600 M779.5,0 l0,600 M784.5,0 l0,600 M789.5,0 l0,600 M794.5,0 l0,600 M0,4.5 l800,0 M0,9.5 l800,0 M0,14.5 l800,0 M0,19.5 l800,0 M0,29.5 l800,0 M0,34.5 l800,0 M0,39.5 l800,0 M0,44.5 l800,0 M0,54.5 l800,0 M0,59.5 l800,0 M0,64.5 l800,0 M0,69.5 l800,0 M0,79.5 l800,0 M0,84.5 l800,0 M0,89.5 l800,0 M0,94.5 l800,0 M0,104.5 l800,0 M0,109.5 l800,0 M0,114.5 l800,0 M0,119.5 l800,0 M0,129.5 l800,0 M0,134.5 l800,0 M0,139.5 l800,0 M0,144.5 l800,0 M0,154.5 l800,0 M0,159.5 l800,0 M0,164.5 l800,0 M0,169.5 l800,0 M0,179.5 l800,0 M0,184.5 l800,0 M0,189.5 l800,0 M0,194.5 l800,0 M0,204.5 l800,0 M0,209.5 l800,0 M0,214.5 l800,0 M0,219.5 l800,0 M0,229.5 l800,0 M0,234.5 l800,0 M0,239.5 l800,0 M0,244.5 l800,0 M0,254.5 l800,0 M0,259.5 l800,0 M0,264.5 l800,0 M0,269.5 l800,0 M0,279.5 l800,0 M0,284.5 l800,0 M0,289.5 l800,0 M0,294.5 l800,0 M0,304.5 l800,0 M0,309.5 l800,0 M0,314.5 l800,0 M0,319.5 l800,0 M0,329.5 l800,0 M0,334.5 l800,0 M0,339.5 l800,0 M0,344.5 l800,0 M0,354.5 l800,0 M0,359.5 l800,0 M0,364.5 l800,0 M0,369.5 l800,0 M0,379.5 l800,0 M0,384.5 l800,0 M0,389.5 l800,0 M0,394.5 l800,0 M0,404.5 l800,0 M0,409.5 l800,0 M0,414.5 l800,0 M0,419.5 l800,0 M0,429.5 l800,0 M0,434.5 l800,0 M0,439.5 l800,0 M0,444.5 l800,0 M0,454.5 l800,0 M0,459.5 l800,0 M0,464.5 l800,0 M0,469.5 l800,0 M0,479.5 l800,0 M0,484.5 l800,0 M0,489.5 l800,0 M0,494.5 l800,0 M0,504.5 l800,0 M0,509.5 l800,0 M0,514.5 l800,0 M0,519.5 l800,0 M0,529.5 l800,0 M0,534.5 l800,0 M0,539.5 l800,0 M0,544.5 l800,0 M0,554.5 l800,0 M0,559.5 l800,0 M0,564.5 l800,0 M0,569.5 l800,0 M0,579.5 l800,0 M0,584.5 l800,0 M0,589.5 l800,0 M0,594.5 l800,0" stroke="#ccc" stroke-width="1" fill="none"/>
  <path d="M24.5,0 l0,600 M74.5,0 l0,600 M124.5,0 l0,600 M174.5,0 l0,600 M224.5,0 l0,600 M274.5,0 l0,600 M324.5,0 l0,600 M374.5,0 l0,600 M424.5,0 l0,600 M474.5,0 l0,600 M524.5,0 l0,600 M574.5,0 l0,600 M624.5,0 l0,600 M674.5,0 l0,600 M724.5,0 l0,600 M774.5,0 l0,600 M0,24.5 l800,0 M0,74.5 l800,0 M0,124.5 l800,0 M0,174.5 l800,0 M0,224.5 l800,0 M0,274.5 l800,0 M0,324.5 l800,0 M0,374.5 l800,0 M0,424.5 l800,0 M0,474.5 l800,0 M0,524.5 l800,0 M0,574.5 l800,0" stroke="#888" stroke-width="1" fill="none"/>
  <path d="M49.5,0 l0,600 M99.5,0 l0,600 M149.5,0 l0,600 M249.5,0 l0,600 M299.5,0 l0,600 M349.5,0 l0,600 M449.5,0 l0,600 M499.5,0 l0,600 M549.5,0 l0,600 M649.5,0 l0,600 M699.5,0 l0,600 M749.5,0 l0,600 M799.5,0 l0,600 M0,49.5 l800,0 M0,99.5 l800,0 M0,199.5 l800,0 M0,249.5 l800,0 M0,349.5 l800,0 M0,399.5 l800,0 M0,499.5 l800,0 M0,549.5 l800,0 M0,599.5 l800,0" stroke="black" stroke-width="1" fill="none"/>
  <path d="M599.5,0 l0,600 M0,449.5 l800,0" stroke="magenta" stroke-width="1" fill="none"/>
  <path d="M199.5,0 l0,600 M0,149.5 l800,0" stroke="red" stroke-width="1" fill="none"/>
  <path d="M399.5,0 l0,600 M0,299.5 l800,0" stroke="blue" stroke-width="1" fill="none"/>
  <path d="M99.5,199.5 L519.5,269.5 L489.5,449.5 L69.5,379.5 Z" stroke="green" stroke-width="1" fill="none"/>
</svg>
